<svg width="239" height="209" viewBox="0 0 239 209" fill="none" xmlns="http://www.w3.org/2000/svg">
<path d="M29.9738 53.6022L59.7718 37.2842" stroke="black" stroke-width="3"/>
<path d="M29.9738 133.631L59.7718 117.313" stroke="black" stroke-width="3"/>
<path d="M36.9266 48.9196V129.516" stroke="black" stroke-width="3"/>
<path d="M51.8257 40.6897V121.428" stroke="black" stroke-width="3"/>
<circle cx="44.7917" cy="29.5205" r="6.02047" fill="black" stroke="black" stroke-width="3"/>
<path d="M56.3089 37.2031C56.3089 37.2031 87.0192 61.5281 65.1267 80.684C43.2342 99.8399 18.3011 65.1768 4.01023 99.8399C-10.2807 134.503 56.3089 172.207 56.3089 172.207" stroke="black" stroke-width="3"/>
<path d="M92.3301 70.4062L100.697 91.2891L109.064 70.4062H113.441V96H110.066V86.0332L110.383 75.2754L101.98 96H99.3965L91.0117 75.3281L91.3457 86.0332V96H87.9707V70.4062H92.3301ZM139.088 84.0293C139.088 86.5371 138.666 88.7285 137.822 90.6035C136.979 92.4668 135.783 93.8906 134.236 94.875C132.689 95.8594 130.885 96.3516 128.822 96.3516C126.807 96.3516 125.02 95.8594 123.461 94.875C121.902 93.8789 120.689 92.4668 119.822 90.6387C118.967 88.7988 118.527 86.6719 118.504 84.2578V82.4121C118.504 79.9512 118.932 77.7773 119.787 75.8906C120.643 74.0039 121.85 72.5625 123.408 71.5664C124.979 70.5586 126.771 70.0547 128.787 70.0547C130.838 70.0547 132.643 70.5527 134.201 71.5488C135.771 72.5332 136.979 73.9688 137.822 75.8555C138.666 77.7305 139.088 79.916 139.088 82.4121V84.0293ZM135.73 82.377C135.73 79.3418 135.121 77.0156 133.902 75.3984C132.684 73.7695 130.979 72.9551 128.787 72.9551C126.654 72.9551 124.973 73.7695 123.742 75.3984C122.523 77.0156 121.896 79.2656 121.861 82.1484V84.0293C121.861 86.9707 122.477 89.2852 123.707 90.9727C124.949 92.6484 126.654 93.4863 128.822 93.4863C131.002 93.4863 132.689 92.6953 133.885 91.1133C135.08 89.5195 135.695 87.2402 135.73 84.2754V82.377ZM144.15 96V70.4062H151.375C153.602 70.4062 155.57 70.8984 157.281 71.8828C158.992 72.8672 160.311 74.2676 161.236 76.084C162.174 77.9004 162.648 79.9863 162.66 82.3418V83.9766C162.66 86.3906 162.191 88.5059 161.254 90.3223C160.328 92.1387 158.998 93.5332 157.264 94.5059C155.541 95.4785 153.531 95.9766 151.234 96H144.15ZM147.525 73.1836V93.2402H151.076C153.678 93.2402 155.699 92.4316 157.141 90.8145C158.594 89.1973 159.32 86.8945 159.32 83.9062V82.4121C159.32 79.5059 158.635 77.25 157.264 75.6445C155.904 74.0273 153.971 73.207 151.463 73.1836H147.525ZM182.242 84.1699H171.15V93.2402H184.035V96H167.775V70.4062H183.859V73.1836H171.15V81.4102H182.242V84.1699ZM197.623 85.6465H191.611V96H188.219V70.4062H196.691C199.574 70.4062 201.789 71.0625 203.336 72.375C204.895 73.6875 205.674 75.5977 205.674 78.1055C205.674 79.6992 205.24 81.0879 204.373 82.2715C203.518 83.4551 202.322 84.3398 200.787 84.9258L206.799 95.7891V96H203.178L197.623 85.6465ZM191.611 82.8867H196.797C198.473 82.8867 199.803 82.4531 200.787 81.5859C201.783 80.7188 202.281 79.5586 202.281 78.1055C202.281 76.5234 201.807 75.3105 200.857 74.4668C199.92 73.623 198.561 73.1953 196.779 73.1836H191.611V82.8867ZM230.09 96H226.697L213.812 76.2773V96H210.42V70.4062H213.812L226.732 90.2168V70.4062H230.09V96Z" fill="black"/>
<path d="M188.773 7.64124C188.773 7.64124 105.261 12.6719 71.7596 73.6969C38.2577 134.722 186.315 140.294 145.011 174.242C103.706 208.191 50.2627 168.126 50.2627 168.126" stroke="black" stroke-width="3"/>
</svg>
